<?xml version="1.0" encoding="utf-8"?>
<!-- Generator: Adobe Illustrator 17.0.0, SVG Export Plug-In . SVG Version: 6.00 Build 0)  -->
<!DOCTYPE svg PUBLIC "-//W3C//DTD SVG 1.1//EN" "http://www.w3.org/Graphics/SVG/1.1/DTD/svg11.dtd">
<svg version="1.1" id="Layer_1" xmlns="http://www.w3.org/2000/svg" xmlns:xlink="http://www.w3.org/1999/xlink" x="0px" y="0px"
	 width="558px" height="128px" viewBox="0 0 558 128" enable-background="new 0 0 558 128" xml:space="preserve">
<g>
	<rect x="-2.5" y="3" fill="none" width="563" height="122"/>
	<path fill="#1F0D06" d="M50.061,112.51H65.44v11.154H22.513V112.51h15.38V14.148H11.696v21.126H1.218V2.994h85.517v32.28H76.257
		V14.148H50.061V112.51z"/>
	<path fill="#1F0D06" d="M120.363,112.51h15.38v11.154H92.815V112.51h15.379V14.148H92.815V2.994h42.928v11.154h-15.38
		L120.363,112.51L120.363,112.51z"/>
	<path fill="#1F0D06" d="M250.325,33.246c-5.746-6.929-12.337-12.337-19.774-15.887c-7.267-3.718-15.379-5.577-23.83-5.577
		c-28.393,0-51.209,22.309-51.209,50.702c0,28.224,21.971,51.378,50.871,51.378c22.816,0,42.59-14.366,48.505-36.336h-60.504V67.047
		h73.855v56.617h-11.154V95.609c-9.971,19.267-29.576,30.421-51.209,30.421c-20.788,0-42.759-12.337-53.237-30.421
		c-3.042-5.239-9.295-18.59-9.295-33.125c0-17.746,7.098-33.463,17.915-43.773c12.506-11.83,28.055-18.929,45.801-18.929
		c16.562,0,32.618,7.099,43.266,18.929V2.994h11.154v30.252C261.48,33.246,250.325,33.246,250.325,33.246z"/>
	<path fill="#1F0D06" d="M360.343,92.567v31.097h-85.01V112.51h15.379V14.148h-15.379V2.994h85.01v31.097h-12.169V14.148H302.88
		v43.604h46.646v9.972H302.88v44.787h45.293V92.567H360.343z"/>
	<path fill="#1F0D06" d="M471.376,123.664h-23.492L410.533,71.61h4.563c9.127,0,17.915,0.338,25.858-4.563
		c8.45-5.239,13.521-14.365,13.521-24.168c0-8.45-3.042-16.225-9.127-21.802c-7.098-6.591-14.872-6.929-23.999-6.929h-23.66v98.362
		h14.365v11.154h-42.082V112.51h15.548V14.148h-15.548V2.994h52.223c11.661,0,21.464,1.014,30.759,8.957
		c9.127,7.774,13.689,18.591,13.689,30.421c0,20.45-15.887,37.181-36.505,37.181l25.182,32.957h16.056L471.376,123.664
		L471.376,123.664z"/>
	<path fill="#1F0D06" d="M537.284,31.894c-1.521-13.689-11.492-21.464-23.999-21.464c-12.168,0-23.153,8.45-23.153,21.126
		c0,6.422,2.704,12.844,7.943,16.731c5.408,4.056,13.521,5.577,20.111,7.099c8.789,2.028,17.07,4.056,24.168,10.14
		c7.437,6.084,11.323,15.042,11.323,24.506c0,8.281-1.521,15.042-6.929,21.802c-7.605,9.633-17.239,14.197-30.083,14.197
		c-11.154,0-21.126-4.732-27.379-14.197v11.831h-10.141v-32.45h10.141c1.521,14.366,11.83,23.83,26.872,23.83
		c13.689,0,25.351-9.803,25.351-23.83c0-17.577-13.689-21.633-28.055-25.182c-8.281-2.197-15.887-3.718-22.985-8.957
		c-8.281-6.084-12.507-15.042-12.507-25.182c0-8.619,2.873-14.535,6.254-19.098c6.422-8.788,17.914-13.014,29.238-13.014
		c9.464,0,19.773,4.226,23.829,13.014V2.994h10.141v28.9H537.284z"/>
</g>
</svg>
